<svg width="523" height="557" viewBox="0 0 523 557" fill="none" xmlns="http://www.w3.org/2000/svg">
<path d="M491.998 311.672C491.998 446.981 382.308 556.672 246.998 556.672C111.688 556.672 1.99783 446.981 1.99783 311.672C1.99783 176.362 111.688 66.6716 246.998 66.6716C382.308 66.6716 491.998 176.362 491.998 311.672Z" fill="#816AE2"/>
<path d="M427.505 146C410.472 158.401 395.674 178.66 406.934 209.517C428.831 269.522 376.126 315.035 432.338 354.309C454.57 369.842 468.543 383.346 477.32 394C486.816 368.023 492 339.978 492 310.725C492 247.17 467.538 189.321 427.505 146Z" fill="#C5B9F7"/>
<path d="M1.4018 306.437C1.25633 322.34 2.70846 337.892 5.58148 352.959C21.1322 318.675 57.0095 306.323 86.3561 302.174C107.554 299.177 121.559 279.01 116.48 258.612C109.289 229.733 105.999 197.973 110.252 169.784C113.043 151.299 101.288 136.838 86.9709 126.347C35.1476 169.866 2.06187 234.278 1.4018 306.437Z" fill="#C5B9F6"/>
<path d="M419.315 181.191L351.383 209.881L309.099 179.048L280.086 135.196L307.474 64.0364C310.915 55.0968 321.952 52.7396 328.459 59.5555L423.592 159.209C430.099 166.025 427.849 177.587 419.315 181.191V181.191Z" fill="#F28CC4"/>
<path d="M423.592 159.209L403.86 138.539C410.367 145.355 408.116 156.917 399.582 160.521L331.651 189.212L338.619 200.574L351.382 209.881L419.315 181.191C427.849 177.587 430.099 166.025 423.592 159.209V159.209Z" fill="#ED74B7"/>
<path d="M302.36 368.675L316.491 353.872C325.602 344.328 325.602 328.855 316.491 319.311L281.704 282.871L251.076 314.954L267.928 349.353L302.36 368.675Z" fill="#F28CC4"/>
<path d="M316.491 319.311L296.759 298.641C305.87 308.185 305.87 323.659 296.759 333.202L282.627 348.005L288.058 360.649L302.36 368.674L316.491 353.871C325.602 344.329 325.602 328.855 316.491 319.311V319.311Z" fill="#ED74B7"/>
<path d="M176.617 386.683L256.694 423.455C266.612 428 275.629 434.452 283.289 442.478L300.789 460.81L343.207 457.034L345.55 413.922L256.808 320.963L176.617 386.683Z" fill="#B3DAFE"/>
<path d="M253.015 362.658L351.384 209.881L280.087 135.196L134.24 238.238C89.6329 269.753 83.5363 336.064 121.581 375.918C159.627 415.771 222.93 409.385 253.015 362.658V362.658Z" fill="#B3DAFE"/>
<path d="M331.651 189.212L233.283 341.989C205.862 384.578 150.85 393.647 112.515 364.746C115.196 368.648 118.212 372.389 121.581 375.918C159.627 415.771 222.929 409.385 253.015 362.659L351.383 209.881L331.651 189.212Z" fill="#A4C7FF"/>
<path d="M227.286 355.054C226.038 356.361 224.753 357.592 223.431 358.755L216.548 356.161L209.665 367.859C203.828 370.637 197.661 372.377 191.402 373.089L184.859 365.905L177.636 373.003C171.368 372.215 165.191 370.388 159.364 367.523L153.198 357.245L145.598 358.141C144.515 357.16 143.459 356.131 142.431 355.055C119.002 330.511 119.002 290.712 142.431 266.168C143.459 265.092 144.515 264.063 145.598 263.083L152.481 263.5L159.364 253.7C165.191 250.835 171.368 249.008 177.636 248.22L184.519 253.7L191.402 248.134C197.661 248.845 203.828 250.585 209.665 253.363L217.281 264.673L223.431 262.467C224.753 263.63 226.038 264.861 227.286 266.168C250.716 290.711 250.716 330.511 227.286 355.054V355.054Z" fill="#91B6FF"/>
<path d="M227.286 266.167C226.04 264.863 224.755 263.63 223.431 262.467L218.607 261.447L219.695 263.807C229.814 286.994 225.774 315.295 207.553 334.382C187.521 355.366 156.853 358.393 133.734 343.495C136.147 347.603 139.036 351.492 142.434 355.051C143.461 356.127 144.517 357.159 145.597 358.141L153.197 357.245L159.36 367.52C165.187 370.384 171.362 372.213 177.634 373.005L184.857 365.906L191.397 373.088C197.656 372.373 203.83 370.629 209.667 367.854L216.546 356.162L223.429 358.757C224.753 357.591 226.038 356.356 227.284 355.052C250.717 330.507 250.717 290.712 227.286 266.167V266.167Z" fill="#7DA8FF"/>
<path d="M300.789 460.809L318.598 479.464C325.642 486.842 337.06 486.849 344.11 479.464L363.359 459.3C370.403 451.922 370.403 439.954 363.359 432.576L345.55 413.921L300.789 460.809Z" fill="#91B6FF"/>
<path d="M274.113 223.348C272.352 223.348 270.59 222.644 269.247 221.237C266.559 218.42 266.559 213.856 269.247 211.04L289.665 189.651C292.353 186.836 296.712 186.836 299.399 189.651C302.087 192.468 302.087 197.032 299.399 199.848L278.98 221.237C277.637 222.643 275.875 223.348 274.113 223.348V223.348Z" fill="#D8ECFE"/>
<path d="M378.96 47.5705C377.199 47.5705 375.437 46.8668 374.093 45.4593C371.405 42.6426 371.405 38.0781 374.093 35.2623L405.739 2.11216C408.427 -0.702669 412.786 -0.702669 415.473 2.11216C418.161 4.92891 418.161 9.49339 415.473 12.3092L383.826 45.4593C382.483 46.8658 380.722 47.5705 378.96 47.5705Z" fill="#D8ECFE"/>
<path d="M463.691 2.52451C461.003 -0.290315 456.645 -0.290315 453.957 2.52451L398.399 60.7216C395.711 63.5384 395.711 68.1028 398.399 70.9186C399.743 72.326 401.505 73.0298 403.266 73.0298C405.027 73.0298 406.789 72.326 408.133 70.9186L463.691 12.7215C466.379 9.90574 466.379 5.34126 463.691 2.52451Z" fill="#D8ECFE"/>
<path d="M447.953 119.841C446.192 119.841 444.43 119.137 443.086 117.73C440.398 114.913 440.398 110.348 443.086 107.533L474.732 74.3833C477.42 71.5675 481.779 71.5695 484.466 74.3833C487.154 77.2001 487.154 81.7646 484.466 84.5804L452.819 117.73C451.476 119.136 449.714 119.841 447.953 119.841Z" fill="#D8ECFE"/>
<path d="M254.845 244.231C258.564 244.231 261.579 241.073 261.579 237.177C261.579 233.281 258.564 230.123 254.845 230.123C251.125 230.123 248.11 233.281 248.11 237.177C248.11 241.073 251.125 244.231 254.845 244.231Z" fill="#D8ECFE"/>
<path d="M159.364 253.699V367.522C154.481 365.129 149.838 362.004 145.598 358.14V263.081C149.838 259.218 154.481 256.093 159.364 253.699Z" fill="#D8ECFE"/>
<path d="M191.402 248.133V373.089C186.823 373.608 182.206 373.588 177.636 373.002V248.219C182.206 247.633 186.823 247.614 191.402 248.133Z" fill="#D8ECFE"/>
<path d="M223.431 262.467V346.46C219.173 350.219 214.538 365.543 209.665 367.86V253.363C211.959 254.45 214.199 255.699 216.365 257.113C218.815 258.688 221.173 260.476 223.431 262.467V262.467Z" fill="#D8ECFE"/>
<path d="M145.598 349.353C150.076 350.968 154.692 352.016 159.364 352.477V367.522C154.481 365.129 149.838 362.004 145.598 358.14V349.353Z" fill="#A4C7FF"/>
<path d="M177.636 351.411C182.362 350.363 186.988 348.71 191.402 346.46V373.09C186.823 373.609 182.206 373.589 177.636 373.003V351.411Z" fill="#A4C7FF"/>
<path d="M223.431 262.467V275.119C221.981 268.831 219.586 262.727 216.254 257.055C216.291 257.074 216.328 257.103 216.365 257.113C218.815 258.688 221.173 260.476 223.431 262.467Z" fill="#A4C7FF"/>
<path d="M209.665 332.058C216.566 324.069 221.155 314.667 223.431 304.794V358.755C219.173 362.514 214.538 365.542 209.665 367.859V332.058Z" fill="#A4C7FF"/>
</svg>
