<svg width="492" height="490" viewBox="0 0 492 490" fill="none" xmlns="http://www.w3.org/2000/svg">
<path d="M461.523 367.125C480.324 333.94 491.002 295.927 491.002 255.526C491.002 126.029 381.311 21.0509 246 21.0509C110.689 21.0509 0.997986 126.029 0.997986 255.526C0.997986 295.927 11.677 333.941 30.478 367.125H461.523Z" fill="#816AE2"/>
<path d="M398.531 330.071C391.481 329.519 387.731 326.901 379.422 322.418C360.877 312.411 342.055 304.727 321.694 299.548C315.752 298.037 310.674 294.26 307.949 288.986C302.616 278.66 300.996 265.226 300.631 255.081C295.113 261.233 289.322 266.377 283.788 270.491C273.007 278.502 259.703 282.855 246 282.855C232.298 282.855 218.993 278.502 208.212 270.491C202.678 266.377 196.886 261.232 191.369 255.081C191.004 265.225 189.384 278.66 184.05 288.986C181.325 294.26 176.247 298.037 170.306 299.548C149.945 304.728 131.123 312.411 112.578 322.418C104.27 326.901 100.519 329.519 93.469 330.071C61.859 332.544 42.16 347.386 29.949 366.169C71.246 439.87 152.501 490 246 490C339.499 490 420.755 439.87 462.05 366.168C449.839 347.385 430.14 332.544 398.531 330.071V330.071Z" fill="#FCAD6D"/>
<path d="M208.213 270.49C202.679 266.377 196.887 261.232 191.37 255.081C191.005 265.224 189.385 278.659 184.051 288.985C181.326 294.26 176.248 298.036 170.307 299.547C149.947 304.727 131.124 312.41 112.579 322.417C104.271 326.9 100.52 329.518 93.47 330.07C61.86 332.543 42.161 347.385 29.95 366.168C52.345 406.137 86.496 439.168 127.974 461.037C127.974 439.618 127.974 415.346 127.974 398.906C127.974 363.177 202.236 347.587 202.236 347.587L219.716 341.33C234.293 334.562 240.793 305.964 243.688 282.807C230.807 282.346 218.386 278.05 208.213 270.49V270.49Z" fill="#FD995B"/>
<path d="M227.416 1.10921C171.607 8.38648 166.303 38.6679 166.278 49.7791C166.273 52.1085 164.924 54.2685 162.735 55.2877C133.705 68.8029 149.357 133.94 149.357 133.94C152.272 134.127 155.323 135.256 157.599 136.312C158.156 132.993 159.066 129.725 160.351 126.566C161.33 124.16 162.554 121.728 164.084 119.43C166.739 115.444 167.948 110.742 167.587 106.041C166.544 92.4521 167.046 65.6754 185.789 57.6047C201.667 50.7667 221.144 54.7269 233.565 58.6794C241.631 61.2462 250.369 61.2462 258.436 58.6794C270.857 54.7269 290.334 50.7667 306.212 57.6047C324.901 65.6524 325.454 92.3 324.423 105.924C324.064 110.661 325.241 115.412 327.916 119.429C329.496 121.8 330.749 124.315 331.744 126.797C332.98 129.884 333.859 133.072 334.403 136.311C337.271 134.981 341.372 133.532 344.879 134.006C345.309 119.764 346.682 104.409 346.682 104.409C363.22 26.8888 287.506 -6.72697 227.416 1.10921V1.10921Z" fill="#2A428C"/>
<path d="M247.031 0.0241457C240.402 -0.085913 233.82 0.273931 227.415 1.10942C171.606 8.38669 166.302 38.6691 166.277 49.7793C166.271 52.1087 164.923 54.2687 162.734 55.2879C133.704 68.8031 149.356 133.941 149.356 133.941C152.271 134.127 155.322 135.258 157.598 136.312C158.155 132.993 159.065 129.725 160.35 126.567C161.329 124.16 162.553 121.728 164.083 119.431C166.738 115.445 167.947 110.743 167.586 106.042C166.543 92.4533 167.045 65.6765 185.788 57.6059C201.666 50.7679 221.144 54.7281 233.564 58.6806C234.186 58.8787 234.813 59.0558 235.442 59.2233C235.31 59.0261 235.188 58.8251 235.051 58.6289C211.059 24.2533 245.807 0.833794 247.031 0.0241457V0.0241457Z" fill="#1C2E7A"/>
<path d="M351.151 135.855C346.805 132.043 338.146 133.976 334.402 136.31C335.222 141.198 335.269 146.198 334.56 151.136L330.142 181.93C330.142 184.412 330.06 186.847 329.91 189.241C340.682 192.35 346.033 183.095 346.935 176.743C347.323 174.008 347.957 171.313 348.837 168.685C351.704 160.118 362.041 145.408 351.151 135.855V135.855Z" fill="#FCAD6D"/>
<path d="M140.85 135.855C145.197 132.043 153.855 133.976 157.599 136.31C156.779 141.198 156.732 146.198 157.441 151.136L161.859 181.93C161.859 184.412 161.941 186.847 162.091 189.241C151.319 192.35 145.967 183.095 145.066 176.743C144.678 174.008 144.044 171.313 143.164 168.685C140.297 160.118 129.959 145.408 140.85 135.855V135.855Z" fill="#FD995B"/>
<path d="M332.202 126.628C329.059 118.781 324.189 115.532 324.913 105.958C327.518 71.5649 314.44 60.6309 306.413 57.175C290.676 50.3992 271.552 54.0082 258.281 58.2316C250.361 60.7524 241.637 60.7524 233.717 58.2316C220.446 54.0091 201.327 50.3983 185.586 57.175C177.544 60.6375 164.449 71.5956 167.095 106.075C167.816 115.456 163.018 118.704 159.892 126.393C156.749 134.121 155.732 142.697 156.951 151.194L161.365 181.93C161.365 232.701 193.461 262.035 207.262 272.29C229.9 289.116 261.934 289.238 284.736 272.29C298.536 262.034 330.633 232.7 330.628 181.995L335.046 151.201C336.255 142.788 335.271 134.292 332.202 126.628V126.628Z" fill="#F9BA8F"/>
<path d="M259.556 272.29C245.756 262.035 213.659 232.702 213.659 181.93L209.245 151.194C208.026 142.697 209.043 134.122 212.186 126.393C215.312 118.704 220.11 115.456 219.389 106.075C217.035 75.4093 227.132 63.3555 235.052 58.6268C234.605 58.5015 234.16 58.3713 233.718 58.2316C220.447 54.0091 201.327 50.3983 185.586 57.175C177.544 60.6375 164.449 71.5956 167.095 106.075C167.816 115.456 163.018 118.704 159.892 126.393C156.749 134.121 155.732 142.697 156.951 151.194L161.366 181.93C161.366 232.701 193.462 262.035 207.263 272.29C225.98 286.201 251.116 288.683 272.15 279.55C267.734 277.634 263.501 275.221 259.556 272.29Z" fill="#FCAD6D"/>
<path d="M346.27 161.81C339.948 159.696 334.939 154.903 332.73 148.852C332.317 147.721 330.689 147.721 330.276 148.852C328.067 154.903 323.059 159.697 316.736 161.81C315.554 162.205 315.554 163.763 316.736 164.159C323.059 166.272 328.067 171.066 330.276 177.117C330.689 178.248 332.317 178.248 332.73 177.117C334.938 171.066 339.947 166.273 346.27 164.159C347.452 163.763 347.452 162.205 346.27 161.81Z" fill="#FFDD40"/>
<path d="M390.034 258.336C386.853 257.273 384.333 254.861 383.222 251.817C383.014 251.248 382.195 251.248 381.988 251.817C380.877 254.861 378.357 257.273 375.176 258.336C374.581 258.535 374.581 259.319 375.176 259.517C378.357 260.581 380.877 262.992 381.988 266.037C382.196 266.606 383.015 266.606 383.222 266.037C384.333 262.992 386.853 260.581 390.034 259.517C390.629 259.319 390.629 258.535 390.034 258.336Z" fill="#FFDD40"/>
<path d="M311.411 181.791C307.863 180.604 305.051 177.914 303.812 174.519C303.58 173.884 302.667 173.884 302.435 174.519C301.195 177.915 298.384 180.605 294.836 181.791C294.172 182.013 294.172 182.887 294.836 183.109C298.384 184.296 301.195 186.986 302.435 190.381C302.667 191.017 303.581 191.017 303.812 190.381C305.052 186.986 307.863 184.295 311.411 183.109C312.074 182.887 312.074 182.013 311.411 181.791Z" fill="#FFDD40"/>
<path d="M293.752 237.291C292.269 240.081 291.83 243.384 292.81 246.598C293.089 247.513 292.408 248.44 291.414 248.5C285.607 248.85 280.794 252.779 279.367 258.018C279.126 258.903 278.16 259.385 277.279 259.028C269.697 255.96 261.115 260.365 259.2 267.592C258.906 268.7 257.415 269.094 256.577 268.281C251.436 263.293 242.761 263.248 237.59 268.259C236.733 269.09 235.252 268.779 234.952 267.647C233.522 262.259 228.33 258.043 221.999 258.043C220.184 258.043 218.458 258.396 216.882 259.027C216.018 259.374 215.023 258.901 214.788 258.034C213.367 252.789 208.552 248.854 202.743 248.5C201.749 248.44 201.061 247.513 201.34 246.598C203.403 239.832 199.235 232.65 192.104 230.769C191.268 230.549 190.722 229.75 190.955 228.95C191.594 226.75 191.621 224.373 190.921 222.04C190.741 221.439 190.978 220.795 191.509 220.43C192.29 219.894 193.011 219.283 193.657 218.606C194.283 217.95 195.388 217.939 195.993 218.613C199.052 222.022 203.81 223.788 208.699 222.944C209.344 222.833 209.998 223.127 210.315 223.676C212.709 227.826 217.426 230.552 222.749 230.261C223.252 230.233 223.732 230.423 224.072 230.778C227.638 234.509 232.758 235.154 236.968 233.576C237.571 233.35 238.257 233.508 238.685 233.973C240.695 236.159 243.633 237.542 246.915 237.542C250.225 237.542 253.189 236.136 255.2 233.918C255.642 233.431 256.351 233.254 256.974 233.5C261.226 235.178 266.461 234.567 270.083 230.777C270.423 230.421 270.902 230.232 271.405 230.26C276.726 230.551 281.445 227.826 283.84 223.675C284.158 223.123 284.815 222.833 285.462 222.944C286.5 223.122 287.532 223.178 288.543 223.129V197.448C288.543 192.444 282.801 189.166 278.354 191.798C278.269 191.848 278.184 191.9 278.099 191.952C277.401 192.385 276.489 192.24 275.977 191.613C269.864 184.127 257.897 185.556 253.413 193.328C253.019 194.011 252.154 194.34 251.411 194.018C250.04 193.424 248.519 193.089 246.915 193.089C245.415 193.089 243.989 193.382 242.689 193.906C241.932 194.211 241.074 193.943 240.667 193.261C238.323 189.331 233.913 186.678 228.845 186.678C224.52 186.678 220.675 188.613 218.181 191.622C217.668 192.241 216.765 192.396 216.072 191.965C211.98 189.42 206.687 189.131 202.27 191.383C201.497 191.778 200.562 191.505 200.131 190.776C197.793 186.819 193.48 184.436 188.913 184.305C186.099 184.225 183.771 182.348 182.88 179.792C181.113 174.721 176.099 171.066 170.212 171.066C159.231 171.066 153.767 182.486 158.683 190.357C160.006 192.475 160.072 196.04 158.738 198.152C154.536 204.807 157.637 214.142 165.804 216.795C166.739 217.099 167.144 218.164 166.633 218.972C162.119 226.106 166.05 235.616 174.501 237.831C175.37 238.059 175.865 238.897 175.627 239.729C173.419 247.434 179.237 255.318 187.626 255.816C188.627 255.876 189.317 256.814 189.029 257.732C185.871 267.827 196.781 277.236 206.977 273.055C207.837 272.702 208.847 273.185 209.073 274.054C211.595 283.759 224.578 286.707 231.532 279.807C232.361 278.984 233.852 279.365 234.147 280.473C235.622 286.008 240.871 290.055 247.086 290.055C254.459 290.055 260.437 284.335 260.437 277.278C260.437 277.153 260.421 277.03 260.417 276.906C266.315 287.3 282.26 284.942 285.084 274.054C285.309 273.185 286.32 272.702 287.179 273.055C297.362 277.226 308.29 267.835 305.126 257.732C304.838 256.815 305.526 255.876 306.526 255.816C314.924 255.319 320.751 247.419 318.521 239.703C318.282 238.875 318.835 238.054 319.699 237.82C320.021 237.733 320.327 237.619 320.637 237.512H293.755V237.291H293.752Z" fill="#C2E3FC"/>
<path d="M250.502 195.591C250.529 195.576 250.56 195.56 250.591 195.545L259.76 190.455C260.249 190.185 260.821 190.089 261.374 190.183L267.529 191.24C269.336 191.551 271.162 191.17 272.672 190.167C274.185 189.16 275.197 187.652 275.523 185.918C275.848 184.185 275.449 182.434 274.398 180.989C273.348 179.545 271.772 178.577 269.961 178.266L260.462 176.635C258.859 176.355 257.201 176.637 255.791 177.42L248.259 181.6C247.522 182.01 246.609 182.01 245.872 181.6L238.343 177.42C236.936 176.639 235.279 176.361 233.669 176.635L224.172 178.266C222.36 178.577 220.785 179.544 219.734 180.989C218.684 182.434 218.285 184.185 218.61 185.917C219.281 189.493 222.875 191.879 226.605 191.239L232.757 190.182C233.313 190.089 233.884 190.184 234.371 190.454L243.569 195.558C243.617 195.583 243.664 195.61 243.706 195.635C245.778 196.769 248.347 196.771 250.502 195.591V195.591Z" fill="#FCAD6D"/>
<path d="M370.351 232.378H310.826C309.544 232.378 308.349 232.754 307.356 233.397C314.533 239.826 318.643 248.612 318.941 257.865C319.061 261.602 322.224 264.585 326.13 264.585H355.046C358.952 264.585 362.115 261.602 362.235 257.865C362.533 248.617 366.639 239.83 373.82 233.397C372.827 232.754 371.633 232.378 370.351 232.378V232.378Z" fill="#D3DCFB"/>
<path d="M310.825 232.378C309.543 232.378 308.348 232.754 307.355 233.397C314.532 239.826 318.642 248.612 318.94 257.866C319.06 261.603 322.223 264.586 326.129 264.586H340.587V253.032C334.682 247.38 340.587 242.491 340.587 242.491C335.685 237.799 339.526 233.298 340.413 232.379H310.825V232.378Z" fill="#BEC8F7"/>
<path d="M349.859 291.37C349.327 289.951 349.036 288.423 349.036 286.832V261.331C349.036 256.865 345.349 253.06 340.683 253.031C340.651 253.031 340.62 253.031 340.588 253.031C340.556 253.031 340.525 253.031 340.493 253.031C335.827 253.06 332.14 256.865 332.14 261.331V286.832C332.14 288.423 331.85 289.95 331.317 291.37C328.331 299.336 326.378 307.621 326.378 316.084V365.433C326.378 372.5 331.825 378.7 339.174 379.39C347.617 380.183 354.799 373.784 354.799 365.857V316.082C354.798 307.621 352.845 299.335 349.859 291.37V291.37Z" fill="#4FABF7"/>
<path d="M339.173 337.261C331.825 336.571 326.377 330.369 326.377 323.303V365.434C326.377 372.501 331.824 378.701 339.173 379.391C347.616 380.184 354.798 373.785 354.798 365.858V323.728C354.798 331.655 347.617 338.053 339.173 337.261V337.261Z" fill="#1E9EF4"/>
<path d="M381.091 200.657H297.678C292.102 200.657 287.54 205.023 287.54 210.359V232.787C287.54 238.124 292.102 242.49 297.678 242.49H381.091C386.667 242.49 391.229 238.124 391.229 232.787V210.359C391.229 205.023 386.667 200.657 381.091 200.657Z" fill="#2A428C"/>
<path d="M340.588 232.205V210.938C335.192 205.774 340.588 200.657 340.588 200.657H297.678C292.102 200.657 287.54 205.023 287.54 210.359V232.787C287.54 238.124 292.102 242.49 297.678 242.49H340.588C335.092 237.23 340.588 232.205 340.588 232.205V232.205Z" fill="#1C2E7A"/>
<path d="M298.301 220.58L298.311 229.895C298.312 231.194 299.414 232.247 300.772 232.246L378.054 232.165C379.412 232.164 380.511 231.11 380.51 229.81L380.499 220.495L298.301 220.58Z" fill="#D3DCFB"/>
<path d="M340.588 220.536L298.301 220.58L298.311 229.895C298.313 231.194 299.414 232.247 300.772 232.245L340.587 232.204V220.536H340.588Z" fill="#BEC8F7"/>
<path d="M380.492 213.25C380.491 211.95 379.388 210.898 378.031 210.899L300.748 210.98C299.391 210.981 298.291 212.035 298.292 213.335L298.301 221.538L380.5 221.452L380.492 213.25Z" fill="#E9EFFF"/>
<path d="M340.588 210.938L300.749 210.98C299.392 210.981 298.292 212.035 298.294 213.335L298.303 221.538L340.589 221.494V210.938H340.588Z" fill="#D3DCFB"/>
<path d="M0.997986 255.526C0.997986 278.018 4.31399 299.766 10.492 320.358C26.246 307.239 55.936 297.445 95.991 281.993C169.991 253.446 89.991 197.611 107.405 143.06C116.927 113.231 97.374 95.285 77.696 85.1443C30.47 127.886 0.997986 188.41 0.997986 255.526V255.526Z" fill="#9181F2"/>
<path d="M407.906 79.5619C396.163 89.2595 382.606 104.801 382.606 124.877C382.606 160.288 424.786 180.166 424.786 210.9C424.786 241.635 389.786 280.588 452.786 310.399C463.492 315.464 472.346 320.804 479.674 326.176C487.027 303.88 491.002 280.148 491.002 255.527C491.002 185.43 458.852 122.529 407.906 79.5619V79.5619Z" fill="#9181F2"/>
<path d="M246 449.948C246 473.395 216.539 481.598 192.54 484.392C209.749 488.058 227.637 490 246 490C260.821 490 275.333 488.737 289.428 486.323C246.409 476.423 246 449.948 246 449.948V449.948Z" fill="#FD995B"/>
<path d="M295.28 329.891L248.854 352.988C247.065 353.878 244.936 353.878 243.147 352.988L196.721 329.891C193.325 328.201 189.14 329.465 187.374 332.717C185.608 335.967 186.93 339.973 190.327 341.662L235.736 364.253C237.784 365.272 239.069 367.297 239.069 369.506V489.901C241.372 489.962 243.682 489.999 246 489.999C248.319 489.999 250.629 489.962 252.933 489.901V369.506C252.933 367.297 254.218 365.272 256.266 364.253L301.674 341.662C305.071 339.972 306.394 335.967 304.627 332.717C302.863 329.466 298.675 328.201 295.28 329.891V329.891Z" fill="#FD995B"/>
<path d="M256.576 268.281C251.435 263.293 242.76 263.248 237.589 268.259C236.732 269.09 235.251 268.779 234.951 267.647C233.521 262.259 228.329 258.043 221.998 258.043C220.183 258.043 218.456 258.396 216.881 259.027C216.017 259.374 215.022 258.901 214.787 258.033C213.366 252.788 208.551 248.853 202.742 248.499C201.748 248.439 201.06 247.512 201.339 246.597C203.402 239.831 199.235 232.648 192.103 230.768C191.267 230.548 190.721 229.749 190.954 228.949C191.593 226.75 191.62 224.372 190.92 222.04C190.74 221.44 190.977 220.795 191.508 220.43C192.289 219.894 193.01 219.283 193.656 218.606C194.282 217.95 195.387 217.939 195.992 218.613C199.051 222.022 203.809 223.788 208.698 222.944C209.343 222.833 209.997 223.127 210.314 223.676C212.708 227.826 217.425 230.552 222.748 230.261C212.36 220.319 227.655 216.736 214.003 203.671C207.811 197.745 213.914 191.008 213.999 190.914C210.289 189.398 205.972 189.494 202.269 191.382C201.496 191.777 200.561 191.505 200.13 190.775C197.792 186.818 193.479 184.435 188.912 184.304C186.098 184.224 183.77 182.347 182.879 179.791C181.111 174.721 176.098 171.065 170.211 171.065C159.23 171.065 153.766 182.485 158.682 190.356C160.005 192.474 160.071 196.039 158.737 198.152C154.535 204.806 157.636 214.141 165.803 216.794C166.738 217.098 167.143 218.163 166.632 218.971C162.118 226.105 166.049 235.615 174.5 237.83C175.369 238.058 175.864 238.896 175.626 239.728C173.418 247.433 179.236 255.317 187.625 255.816C188.626 255.875 189.316 256.813 189.028 257.732C185.87 267.826 196.78 277.235 206.976 273.054C207.836 272.7 208.846 273.184 209.072 274.053C211.594 283.758 224.577 286.706 231.531 279.806C232.36 278.983 233.851 279.364 234.146 280.473C235.621 286.007 240.87 290.054 247.085 290.054C254.459 290.054 260.436 284.334 260.436 277.277C253.685 274.644 256.576 268.281 256.576 268.281V268.281Z" fill="#9BD8F9"/>
</svg>
