<svg width="491" height="490" viewBox="0 0 491 490" fill="none" xmlns="http://www.w3.org/2000/svg">
<path d="M451.057 382.413C475.699 345.837 490.004 302.281 490.004 255.525C490.004 126.029 380.313 21.0509 245.002 21.0509C109.691 21.0509 0 126.029 0 255.525C0 302.281 14.305 345.837 38.947 382.413H451.057Z" fill="#A290EE"/>
<path d="M157.26 135.822C158.541 131.813 160.263 128.384 162.551 125.916C164.623 123.682 165.762 121.073 165.846 118.37C165.846 118.37 174.948 78.6823 209.453 76.6257C209.453 76.6257 232.856 72.3545 253.511 104.805C270.644 131.724 311.177 140.848 332.451 135.975C337.104 133.145 344.957 131.53 350.386 133.39C350.387 109.743 350.387 100.107 350.387 96.5769C350.387 95.2945 350.387 94.8141 350.387 94.7633C350.387 43.5325 307.509 0 244.987 0C182.835 0 139.586 43.3889 139.586 94.7633V133.39C144.916 131.563 152.579 133.089 157.26 135.822Z" fill="#2A428C"/>
<path d="M261.542 1.05848C256.197 0.364629 250.675 0 244.987 0C182.835 0 139.586 43.3889 139.586 94.7633V133.39C144.916 131.563 152.578 133.088 157.26 135.821C158.541 131.812 160.263 128.383 162.551 125.915C164.623 123.681 165.762 121.072 165.846 118.369C165.846 118.369 174.948 78.6814 209.454 76.6247C209.454 76.6247 224.233 73.9479 240.666 89.1226L241.653 87.2975C241.653 87.2975 272.558 56.4486 251.058 35.8724C229.558 15.2972 261.541 1.05848 261.542 1.05848V1.05848Z" fill="#1C2E7A"/>
<path d="M157.922 186.001C155.825 174.34 154.072 150.913 158.266 135.451C157.689 134.837 157.08 134.213 156.405 133.567C152.969 130.734 144.531 127.67 139.619 130.943C127.314 139.145 135.636 155.281 137.31 164.269C137.824 167.028 138.086 169.821 138.086 172.623C138.086 181.772 146.637 187.777 157.914 186.043L157.924 186.009L157.922 186.001Z" fill="#FD995B"/>
<path d="M450.862 376.918C444.369 364.49 435.966 355.552 427.338 349.128C414.104 339.271 397.775 334.08 381.017 333.481C275.339 329.707 289.619 269.312 289.619 269.312C278.807 278.562 260.391 290.3 245.019 291.015C229.646 290.3 211.231 278.562 200.419 269.312C200.419 269.312 214.797 329.707 109.03 333.481C92.2649 334.08 75.9279 339.272 62.6899 349.135C54.0659 355.559 45.6669 364.495 39.1759 376.918C38.6509 377.924 38.1529 379.126 37.6799 380.498C52.4609 402.909 71.1049 422.749 92.7079 439.18L118.144 453.699L125.003 450.047C162.149 430.27 203.305 420.33 244.487 420.236C257.481 420.207 269.488 424.242 279.214 431.08C308.488 434.986 337.201 443.94 363.889 457.951L366.357 459.247C401.326 440.122 430.9 412.993 452.347 380.463C451.877 379.106 451.383 377.915 450.862 376.918V376.918Z" fill="#FCAD6D"/>
<path d="M200.42 269.312C200.42 269.312 214.798 329.707 109.031 333.481C92.266 334.08 75.929 339.272 62.691 349.135C54.067 355.559 45.668 364.495 39.177 376.918C38.652 377.924 38.154 379.126 37.681 380.498C52.462 402.909 71.106 422.749 92.709 439.18L118.145 453.699L125.005 450.047C137.433 443.43 150.311 437.92 163.487 433.506C163.815 400.899 182.389 378.344 208.791 363.974C233.549 350.499 241.406 315.353 243.82 290.933C228.698 289.689 210.952 278.323 200.42 269.312Z" fill="#FD995B"/>
<path d="M125.003 456.715L121.976 458.327C158.133 478.46 200.157 490 245.002 490C289.892 490 331.955 478.436 368.135 458.266L363.889 456.037C289.433 416.947 199.215 417.203 125.003 456.715Z" fill="#D3DCFB"/>
<path d="M244.487 418.322C203.305 418.416 162.149 428.355 125.003 448.133L117.311 452.228C117.015 452.386 116.732 452.56 116.444 452.728L148.895 471.253C178.404 483.314 210.885 490 245.002 490C265.037 490 284.504 487.681 303.143 483.339V474.354C303.143 443.37 276.863 418.248 244.487 418.322V418.322Z" fill="#E9EFFF"/>
<path d="M214.622 488.202C182.787 461.803 201.353 430.269 207.98 421.008C179.261 425.179 151.139 434.218 125.003 448.133L117.311 452.228C117.015 452.386 116.731 452.56 116.444 452.728L148.895 471.253C169.505 479.677 191.568 485.469 214.622 488.202Z" fill="#D3DCFB"/>
<path d="M375.633 241.707C374.962 235.122 371.628 230.462 367.655 226.301H367.659C361.242 219.56 353.192 214.235 352.042 203.834C349.594 181.7 377.885 173.778 375.634 151.698C373.775 133.457 350.204 130.009 350.392 111.129H278.862C278.857 111.134 278.854 111.137 278.85 111.142C278.722 129.975 300.914 133.493 302.769 151.698C304.943 173.019 279.27 180.562 279.061 201.139H278.862C278.857 201.144 278.854 201.147 278.85 201.151C278.722 219.984 300.914 223.502 302.769 241.707C305.022 263.803 276.727 271.693 279.177 293.843C281.019 310.493 300.993 314.124 302.769 331.553C305.022 353.648 276.727 361.54 279.177 383.689C280.516 395.787 290.938 401.063 295.143 411.746C299.841 423.684 296.155 442.43 282.214 453.211C282.179 453.238 282.144 453.265 282.109 453.292C278.254 456.252 280.244 462.131 285.184 462.281C286.352 462.316 291.9 462.297 327.375 462.303C359.602 462.303 376.31 432.843 368.007 411.746C363.802 401.064 353.38 395.787 352.042 383.689C349.594 361.555 377.885 353.633 375.634 331.553C373.858 314.124 353.884 310.492 352.042 293.843C349.593 271.708 377.884 263.787 375.633 241.707V241.707Z" fill="#2A428C"/>
<path d="M368.006 411.747C363.802 401.064 353.379 395.787 352.041 383.689C349.593 361.555 377.884 353.633 375.633 331.553C374.529 320.722 366.399 315.218 359.959 308.608C349.318 318.692 334.108 310.352 327.305 303.841C319.178 296.063 321.558 279.915 327.305 256.468C333.052 233.021 311.058 216.256 311.058 216.256H284.81C291.488 224.086 301.546 229.706 302.769 241.706C305.022 263.802 276.727 271.692 279.177 293.842C281.019 310.492 300.993 314.124 302.769 331.552C305.022 353.647 276.728 361.539 279.177 383.688C280.516 395.786 290.938 401.062 295.143 411.746C299.841 423.683 296.155 442.429 282.214 453.21C282.179 453.237 282.144 453.264 282.109 453.291C278.254 456.25 280.244 462.129 285.184 462.28C286.352 462.315 291.9 462.296 327.375 462.302C359.601 462.303 376.309 432.843 368.006 411.747Z" fill="#1C2E7A"/>
<path d="M348.033 130.944C343.122 127.671 334.684 130.735 331.247 133.568C331.05 133.757 330.872 133.938 330.684 134.124C336.074 153.019 332.641 182.408 332.066 185.927C332.037 186.048 332.007 186.165 331.978 186.285C342.126 186.948 349.566 181.156 349.566 172.624C349.566 169.823 349.828 167.03 350.342 164.271C352.016 155.282 360.339 139.145 348.033 130.944V130.944Z" fill="#FCAD6D"/>
<path d="M253.511 102.063C232.857 69.6116 209.454 73.8828 209.454 73.8828C174.948 75.9395 165.847 115.628 165.847 115.628C165.763 118.331 164.624 120.939 162.552 123.174C151.135 135.486 153.635 171.459 156.299 186.269C162.198 211.187 170.743 232.915 181.693 250.85C192.81 269.058 209.644 283.218 230.378 291.803C239.665 295.646 250.312 295.647 259.597 291.803C280.331 283.218 297.166 269.057 308.282 250.85C319.231 232.92 327.775 211.192 333.687 186.224C335.729 173.805 336.99 148.909 331.913 133.062C310.729 138.106 270.733 129.12 253.511 102.063V102.063Z" fill="#F9BA8F"/>
<path d="M242.2 250.85C231.25 232.915 222.705 211.187 216.806 186.269C214.142 171.459 211.642 135.486 223.059 123.174C225.131 120.94 226.27 118.331 226.354 115.628C226.354 115.628 230.05 99.5216 241.653 87.2975C224.829 71.0815 209.454 73.8828 209.454 73.8828C174.948 75.9394 165.846 115.628 165.846 115.628C165.762 118.331 164.623 120.94 162.551 123.174C151.134 135.486 153.634 171.459 156.298 186.269C162.197 211.187 170.742 232.916 181.692 250.85C192.808 269.058 209.643 283.218 230.377 291.804C239.664 295.647 250.311 295.648 259.596 291.804C265.1 289.525 270.32 286.841 275.24 283.806C261.625 275.404 250.365 264.224 242.2 250.85Z" fill="#FCAD6D"/>
<path d="M137.351 444.181L147.948 440.566C150.859 439.572 151.462 435.875 148.994 434.095C142.644 429.516 139.645 423.626 138.327 420.086C137.673 418.329 135.736 417.335 133.833 417.737L129.166 418.727C131.484 426.764 134.207 435.407 137.351 444.181V444.181Z" fill="#2A428C"/>
<path d="M144.033 429.597C140.958 426.11 139.239 422.536 138.328 420.086C137.674 418.33 135.737 417.335 133.834 417.737L129.167 418.727C130.599 423.695 132.188 428.895 133.934 434.214C135.792 428.547 144.031 429.597 144.033 429.597V429.597Z" fill="#1C2E7A"/>
<path d="M122.058 387.901C121.719 388.052 121.38 388.204 121.041 388.355C110.949 392.865 100.091 394.947 89.333 394.688C89.554 402.415 89.997 410.18 90.588 417.812C91.928 417.608 93.257 417.368 94.576 417.089C103.414 415.216 112.221 420.282 114.277 428.72C116.479 437.755 119.297 448.108 122.772 458.778C131.198 463.429 139.942 467.61 148.963 471.292C134.513 442.454 125.948 406.946 122.058 387.901V387.901Z" fill="#73C3F9"/>
<path d="M129.166 418.727L129.46 418.665C126.121 406.667 123.68 395.848 122.057 387.902C121.718 388.053 121.379 388.204 121.04 388.356C110.948 392.866 100.091 394.948 89.332 394.688C89.553 402.415 89.996 410.181 90.588 417.813C91.928 417.609 93.257 417.369 94.576 417.09C103.414 415.218 112.221 420.283 114.277 428.72C114.383 429.154 114.497 429.605 114.605 430.044C115.081 429.381 115.402 428.552 115.527 427.525C116.831 416.743 129.166 418.727 129.166 418.727V418.727Z" fill="#4FABF7"/>
<path d="M115.528 427.524C113.472 419.088 104.665 414.021 95.827 415.893C94.075 416.265 92.299 416.545 90.51 416.783C91.087 424.422 91.821 431.928 92.638 439.14C102.733 446.823 113.477 453.756 124.778 459.859C120.954 448.387 117.886 437.201 115.528 427.524V427.524Z" fill="#1E9EF4"/>
<path d="M138.014 298.056C132.145 295.709 126.569 293.227 121.041 290.756C97.804 280.372 70.513 282.842 49.705 297.189L33.189 308.577C30.575 310.379 29.026 313.275 29.026 316.358V340.154V363.949C29.026 367.033 30.575 369.928 33.189 371.731L49.705 383.119C70.513 397.466 97.804 399.936 121.041 389.552C126.569 387.082 132.145 384.598 138.014 382.252V298.056Z" fill="#FF4155"/>
<path d="M121.041 389.551C126.57 387.081 132.145 384.598 138.014 382.251V338.321C137.109 338.371 136.24 338.646 135.47 339.115C120.568 348.178 107.971 342.689 102.397 339.195C100.604 338.07 98.258 338.082 96.506 339.264C89.794 343.791 84.108 341.081 81.167 338.896C79.808 337.886 78.004 337.603 76.365 338.103C66.973 340.965 59.229 331.42 59.229 331.42H29.026V340.153V363.949C29.026 367.032 30.575 369.928 33.189 371.73L49.706 383.118C70.513 397.465 97.804 399.936 121.041 389.551V389.551Z" fill="#E80054"/>
<path d="M136.764 382.754C155.489 375.155 177.098 368.86 210.039 368.86V340.154V311.447C177.099 311.447 155.489 305.151 136.764 297.553V382.754Z" fill="#E9EFFF"/>
<path d="M188.891 324.499C188.891 333.967 180.236 341.259 170.412 340.143C156.64 338.58 142.884 338.337 138.334 338.301C137.796 338.297 137.27 338.382 136.765 338.537V382.755C155.49 375.156 177.099 368.861 210.04 368.861V340.155V311.447C202.416 311.447 195.406 311.106 188.892 310.493V324.499H188.891Z" fill="#D3DCFB"/>
<path d="M94.1841 281.993H84.1611C81.3201 281.993 79.0181 284.197 79.0181 286.915V393.392C79.0181 396.11 81.3211 398.314 84.1611 398.314H94.1841C97.0251 398.314 99.3271 396.11 99.3271 393.392V286.915C99.3271 284.197 97.0241 281.993 94.1841 281.993Z" fill="#FF7186"/>
<path d="M84.161 398.314H94.184C97.025 398.314 99.327 396.111 99.327 393.392V338.374C98.334 338.404 97.351 338.694 96.506 339.264C89.794 343.791 84.108 341.081 81.167 338.896C80.528 338.422 79.79 338.114 79.017 337.966V393.392C79.018 396.111 81.32 398.314 84.161 398.314Z" fill="#FF4155"/>
<path d="M249.053 292.73L214.678 307.601C211.093 309.152 208.79 312.568 208.79 316.333V363.975C208.79 367.74 211.094 371.156 214.678 372.707L249.053 387.579C253.712 389.594 258.99 386.333 258.99 381.441C258.99 371.418 258.99 308.928 258.99 298.87C258.99 293.975 253.711 290.715 249.053 292.73Z" fill="#F28CC4"/>
<path d="M28.89 319.501H53.432C56.62 319.501 59.229 317.004 59.229 313.953C59.229 310.902 56.62 308.405 53.432 308.405H28.89C25.702 308.405 23.093 310.902 23.093 313.953C23.093 317.004 25.702 319.501 28.89 319.501V319.501Z" fill="#FF7186"/>
<path d="M53.432 325.872H28.89C25.702 325.872 23.093 328.369 23.093 331.42C23.093 334.471 25.702 336.968 28.89 336.968H53.432C56.62 336.968 59.229 334.471 59.229 331.42C59.229 328.369 56.621 325.872 53.432 325.872Z" fill="#FF7186"/>
<path d="M53.432 343.339H28.89C25.702 343.339 23.093 345.836 23.093 348.887C23.093 351.938 25.702 354.435 28.89 354.435H53.432C56.62 354.435 59.229 351.938 59.229 348.887C59.229 345.836 56.621 343.339 53.432 343.339Z" fill="#FF4155"/>
<path d="M53.432 360.806H28.89C25.702 360.806 23.093 363.302 23.093 366.354C23.093 369.405 25.702 371.901 28.89 371.901H53.432C56.62 371.901 59.229 369.405 59.229 366.354C59.229 363.302 56.621 360.806 53.432 360.806Z" fill="#FF4155"/>
<path d="M274.927 319.501H299.47C302.659 319.501 305.267 317.004 305.267 313.953C305.267 310.902 302.659 308.405 299.47 308.405H274.927C271.739 308.405 269.13 310.902 269.13 313.953C269.13 317.004 271.739 319.501 274.927 319.501Z" fill="#E9EFFF"/>
<path d="M299.469 325.872H274.926C271.738 325.872 269.129 328.369 269.129 331.42C269.129 334.471 271.738 336.968 274.926 336.968H299.469C302.658 336.968 305.266 334.471 305.266 331.42C305.266 328.369 302.658 325.872 299.469 325.872Z" fill="#E9EFFF"/>
<path d="M299.469 343.339H274.926C271.738 343.339 269.129 345.836 269.129 348.887C269.129 351.938 271.738 354.435 274.926 354.435H299.469C302.658 354.435 305.266 351.938 305.266 348.887C305.266 345.836 302.658 343.339 299.469 343.339Z" fill="#E9EFFF"/>
<path d="M299.469 360.806H274.926C271.738 360.806 269.129 363.303 269.129 366.354C269.129 369.405 271.738 371.901 274.926 371.901H299.469C302.658 371.901 305.266 369.405 305.266 366.354C305.266 363.303 302.658 360.806 299.469 360.806Z" fill="#E9EFFF"/>
<path d="M425.205 96.686C408.092 108.644 393.225 128.179 404.538 157.934C426.538 215.795 373.585 259.683 430.061 297.553C452.398 312.532 466.437 325.553 475.255 335.827C484.796 310.778 490.004 283.735 490.004 255.526C490.004 194.242 465.427 138.459 425.205 96.686Z" fill="#C5B9F7"/>
<path d="M0 255.525C0 271.061 1.595 286.239 4.607 300.93C19.85 267.3 55.628 254.907 84.948 250.586C106.127 247.465 119.952 227.639 114.685 207.76C107.227 179.617 103.645 148.623 107.642 121.049C110.264 102.968 98.373 88.9494 83.954 78.8326C32.509 121.815 0 185.034 0 255.525Z" fill="#C5B9F6"/>
<path d="M258.99 381.439C258.99 376.062 258.99 355.579 258.99 336.196C236.852 351.031 214.979 339.428 208.79 335.52V363.974C208.79 367.739 211.094 371.155 214.678 372.705L249.053 387.577C253.711 389.592 258.99 386.332 258.99 381.439Z" fill="#D277A9"/>
</svg>
