<?xml version="1.0"?>
<svg xmlns="http://www.w3.org/2000/svg" xmlns:xlink="http://www.w3.org/1999/xlink" xmlns:svgjs="http://svgjs.com/svgjs" version="1.1" width="512" height="512" x="0" y="0" viewBox="0 0 512 512" style="enable-background:new 0 0 512 512" xml:space="preserve" class=""><g><g xmlns="http://www.w3.org/2000/svg" id="XMLID_893_"><g id="XMLID_765_"><path id="XMLID_1042_" d="m509.08 276.938-83.667-83.873c-1.876-1.881-4.424-2.938-7.08-2.938h-52.333v-126.127c0-5.522-4.478-10-10-10h-128c-5.522 0-10 4.478-10 10s4.478 10 10 10h118v244h-326v-244h118.003c5.522 0 10-4.478 10-10s-4.478-10-10-10h-128.003c-5.522 0-10 4.478-10 10v328c0 5.522 4.478 10 10 10h42.29c-.237 1.969-.373 3.968-.373 6 0 27.57 22.43 50 50 50 16.339 0 30.87-7.878 40-20.035 9.13 12.156 23.661 20.035 40 20.035 27.57 0 50-22.43 50-50 0-2.032-.136-4.031-.373-6h144.828c-.237 1.969-.373 3.968-.373 6 0 27.57 22.43 50 50 50s50-22.43 50-50c0-2.032-.136-4.031-.373-6h15.436c11.544 0 20.937-9.392 20.937-20.937v-97.063c.001-2.647-1.049-5.187-2.919-7.062zm-17.08 11.197v17.834h-71.969c-5.514 0-10-4.486-10-10v-85.842h4.152zm-390.083 149.865c-16.542 0-30-13.458-30-30s13.458-30 30-30 30 13.458 30 30-13.458 30-30 30zm80 0c-16.542 0-30-13.458-30-30s13.458-30 30-30 30 13.458 30 30-13.458 30-30 30zm42.692-56c-8.791-14.381-24.638-24-42.692-24-16.339 0-30.87 7.878-40 20.035-9.13-12.156-23.661-20.035-40-20.035-18.054 0-33.901 9.619-42.692 24h-39.225v-44h326v44zm201.391 56c-16.542 0-30-13.458-30-30s13.458-30 30-30 30 13.458 30 30-13.458 30-30 30zm65.063-56h-22.372c-8.791-14.381-24.638-24-42.691-24s-33.901 9.619-42.691 24h-17.309v-171.873h24.031v85.842c0 16.542 13.458 30 30 30h71.969v55.095c0 .516-.42.936-.937.936z" fill="#ffadad" data-original="#000000" style="" class=""/><path id="XMLID_1053_" d="m101.92 398c-2.63 0-5.21 1.069-7.07 2.93-1.87 1.86-2.93 4.44-2.93 7.07s1.06 5.21 2.93 7.069c1.86 1.86 4.44 2.931 7.07 2.931s5.2-1.07 7.07-2.931c1.859-1.859 2.93-4.439 2.93-7.069s-1.07-5.21-2.93-7.07c-1.87-1.861-4.44-2.93-7.07-2.93z" fill="#ffadad" data-original="#000000" style="" class=""/><path id="XMLID_1054_" d="m181.92 398c-2.64 0-5.21 1.069-7.07 2.93-1.87 1.86-2.93 4.44-2.93 7.07s1.06 5.21 2.93 7.069c1.86 1.86 4.431 2.931 7.07 2.931 2.63 0 5.21-1.07 7.07-2.931 1.859-1.859 2.93-4.439 2.93-7.069s-1.07-5.21-2.93-7.07c-1.86-1.861-4.44-2.93-7.07-2.93z" fill="#ffadad" data-original="#000000" style="" class=""/><path id="XMLID_1055_" d="m426 398c-2.63 0-5.21 1.069-7.07 2.93s-2.93 4.44-2.93 7.07 1.069 5.21 2.93 7.069c1.86 1.86 4.44 2.931 7.07 2.931s5.21-1.07 7.069-2.931c1.861-1.859 2.931-4.439 2.931-7.069s-1.07-5.21-2.931-7.07c-1.859-1.861-4.439-2.93-7.069-2.93z" fill="#ffadad" data-original="#000000" style="" class=""/><path id="XMLID_1060_" d="m126.001 137.179-23.829 34.872c-2.713 3.971-2.215 9.312 1.186 12.713l71.488 71.487c1.953 1.952 4.512 2.929 7.071 2.929s5.118-.977 7.071-2.929l71.487-71.487c3.401-3.401 3.898-8.742 1.186-12.713l-23.829-34.872c-1.864-2.728-4.954-4.358-8.257-4.358h-95.317c-3.303-.001-6.393 1.63-8.257 4.358zm98.296 15.641 16.172 23.666-58.552 58.552-58.553-58.552 16.172-23.666z" fill="#ffadad" data-original="#000000" style="" class=""/><path id="XMLID_1061_" d="m183 74c2.63 0 5.21-1.07 7.069-2.931 1.861-1.859 2.931-4.439 2.931-7.069s-1.07-5.21-2.931-7.07c-1.859-1.861-4.439-2.93-7.069-2.93s-5.21 1.069-7.07 2.93-2.93 4.44-2.93 7.07 1.069 5.21 2.93 7.069c1.86 1.861 4.44 2.931 7.07 2.931z" fill="#ffadad" data-original="#000000" style="" class=""/></g></g></g></svg>
