<?xml version="1.0"?>
<svg xmlns="http://www.w3.org/2000/svg" xmlns:xlink="http://www.w3.org/1999/xlink" xmlns:svgjs="http://svgjs.com/svgjs" version="1.1" width="512" height="512" x="0" y="0" viewBox="0 0 512 512" style="enable-background:new 0 0 512 512" xml:space="preserve" class=""><g><g xmlns="http://www.w3.org/2000/svg" id="XMLID_1024_"><g id="XMLID_453_"><path id="XMLID_476_" d="m470 76h-106.881l-55.427-42.739c-14.125-10.893-31.728-16.891-49.566-16.891h-150.126v-6.37c0-5.523-4.477-10-10-10h-88c-5.523 0-10 4.477-10 10v168c0 5.523 4.477 10 10 10h88c5.523 0 10-4.477 10-10v-6.91h14.271c5.85 2.724 11.765 5.259 17.729 7.645v119.265c0 23.159 18.841 42 42 42h99c5.523 0 10-4.478 10-10s-4.477-10-10-10h-99c-12.131 0-22-9.869-22-22v-2.042h332v2.042c0 12.131-9.869 22-22 22h-99c-5.523 0-10 4.478-10 10s4.477 10 10 10h99c23.159 0 42-18.841 42-42v-180c0-23.159-18.841-42-42-42zm-382 92h-68v-148h68zm36.502-16.91h-16.502v-114.72h150.126c13.443 0 26.708 4.521 37.354 12.729l34.887 26.901h-90.735c-18.154 0-32.923 14.77-32.923 32.923 0 12.006 6.553 23.025 17.102 28.758l41.633 22.627c5.452 2.963 7.919 9.577 5.74 15.386-1.954 5.209-7.186 8.532-12.737 8.076l-16.43-1.348c-39.404-3.232-77.501-13.451-113.234-30.371-1.339-.632-2.801-.961-4.281-.961zm115.88 51.266 16.43 1.348c.882.073 1.76.108 2.634.108 13.409-.001 25.698-8.384 30.465-21.094 5.662-15.095-.751-32.283-14.916-39.982l-41.634-22.627c-4.103-2.23-6.652-6.516-6.652-11.186 0-7.126 5.797-12.923 12.923-12.923h230.368c12.131 0 22 9.869 22 22v113.958h-332v-45.922c25.983 8.585 52.88 14.064 80.382 16.32zm-80.382 73.602v-24h332v24z" fill="#ffadad" data-original="#000000" style="" class=""/><path id="XMLID_1385_" d="m420 418h-328c-20.953 0-38 17.047-38 38v46c0 5.522 4.477 10 10 10h384c5.523 0 10-4.478 10-10v-46c0-20.953-17.047-38-38-38zm18 74h-364v-36c0-9.925 8.075-18 18-18h328c9.925 0 18 8.075 18 18z" fill="#ffadad" data-original="#000000" style="" class=""/><path id="XMLID_1405_" d="m333.07 337.069c1.86-1.859 2.93-4.439 2.93-7.069s-1.07-5.21-2.93-7.07-4.44-2.93-7.07-2.93-5.21 1.069-7.07 2.93c-1.86 1.86-2.93 4.44-2.93 7.07s1.07 5.21 2.93 7.069c1.86 1.86 4.44 2.931 7.07 2.931s5.21-1.07 7.07-2.931z" fill="#ffadad" data-original="#000000" style="" class=""/></g></g></g></svg>
