<?xml version="1.0"?>
<svg xmlns="http://www.w3.org/2000/svg" xmlns:xlink="http://www.w3.org/1999/xlink" xmlns:svgjs="http://svgjs.com/svgjs" version="1.1" width="512" height="512" x="0" y="0" viewBox="0 0 512.123 512.123" style="enable-background:new 0 0 512 512" xml:space="preserve"><g><g xmlns="http://www.w3.org/2000/svg" id="XMLID_2120_"><g id="XMLID_159_"><path id="XMLID_330_" d="m458.062 274.123c0-16.542-13.458-30-30-30h-162v-44.062c0-19.816-16.122-35.938-35.938-35.938h-12.062v-70c0-5.522-4.478-10-10-10h-8v-24.123h6c5.522 0 10-4.478 10-10v-40c0-5.522-4.478-10-10-10h-60c-14.337 0-26 11.663-26 26v58.123h-8c-5.522 0-10 4.478-10 10v70h-12.062c-19.816 0-35.938 16.122-35.938 35.938v93.062c0 5.522 4.478 10 10 10s10-4.478 10-10v-93.062c0-8.788 7.15-15.938 15.938-15.938h140.123c8.788 0 15.938 7.15 15.938 15.938v44.062h-34c-16.542 0-30 13.458-30 30v48c0 7.678 2.902 14.688 7.664 20-4.761 5.312-7.664 12.322-7.664 20v120c0 3.506.61 6.87 1.72 10h-79.72c-16.542 0-30-13.458-30-30v-79c0-5.522-4.478-10-10-10s-10 4.478-10 10v79c0 27.57 22.43 50 50 50h324c16.542 0 30-13.458 30-30v-120c0-7.678-2.902-14.688-7.664-20 4.761-5.312 7.664-12.322 7.664-20v-48zm-318-248.123c0-3.309 2.691-6 6-6h50v20h-6c-5.522 0-10 4.478-10 10v34.123h-40zm-18 138.123v-60h76v60zm80 110c0-5.514 4.486-10 10-10h216c5.514 0 10 4.486 10 10v48c0 5.514-4.486 10-10 10h-216c-5.514 0-10-4.486-10-10zm236 208c0 5.514-4.486 10-10 10h-216c-5.514 0-10-4.486-10-10v-120c0-5.514 4.486-10 10-10h216c5.514 0 10 4.486 10 10z" fill="#ffadad" data-original="#000000" style=""/><path id="XMLID_334_" d="m384.062 412.123h-128c-5.522 0-10 4.478-10 10s4.478 10 10 10h128c5.522 0 10-4.478 10-10s-4.478-10-10-10z" fill="#ffadad" data-original="#000000" style=""/><path id="XMLID_355_" d="m64.062 348.121c2.63 0 5.21-1.069 7.069-2.93 1.86-1.86 2.931-4.44 2.931-7.07s-1.07-5.21-2.931-7.069c-1.859-1.86-4.439-2.931-7.069-2.931s-5.21 1.07-7.07 2.931c-1.86 1.859-2.93 4.439-2.93 7.069s1.069 5.21 2.93 7.07 4.44 2.93 7.07 2.93z" fill="#ffadad" data-original="#000000" style=""/></g></g></g></svg>
