<?xml version="1.0"?>
<svg xmlns="http://www.w3.org/2000/svg" xmlns:xlink="http://www.w3.org/1999/xlink" xmlns:svgjs="http://svgjs.com/svgjs" version="1.1" width="512" height="512" x="0" y="0" viewBox="0 0 512 512" style="enable-background:new 0 0 512 512" xml:space="preserve" class=""><g><g xmlns="http://www.w3.org/2000/svg"><g><path d="m270.787 169.016v-13.969c0-18.237-14.859-33.073-33.125-33.073h-14.46v-38.985c7.125-3.641 12.017-11.037 12.017-19.556v-24.185h61.506c38.511 0 44.856 2.766 66.912 19.99l23.948 18.708c1.828 1.428 3.996 2.12 6.149 2.12 2.973 0 5.915-1.32 7.888-3.844 3.399-4.353 2.628-10.637-1.725-14.037l-23.949-18.709c-25.144-19.638-35.468-24.228-79.224-24.228h-186.477c-26.635 0-27.459-.63-41.227-11.155-2.349-1.795-5.01-3.83-8.158-6.146-4.449-3.274-10.708-2.322-13.982 2.127-3.273 4.448-2.32 10.708 2.128 13.981 3.001 2.208 5.585 4.184 7.865 5.927 17.208 13.154 22.238 15.266 53.374 15.266h10.028v24.185c0 8.514 4.88 15.907 11.989 19.55v38.991h-14.433c-18.265 0-33.124 14.836-33.124 33.073v13.969c-27.63 4.752-48.722 28.816-48.722 57.718v256.814c0 15.689 12.77 28.453 28.466 28.453h68.295c5.522 0 10-4.477 10-10s-4.478-10-10-10h-68.294c-4.589 0-8.466-3.871-8.466-8.453v-23.76h243.522v23.76c0 4.661-3.811 8.453-8.494 8.453h-68.267c-5.522 0-10 4.477-10 10s4.478 10 10 10h68.267c15.712 0 28.494-12.764 28.494-28.453v-256.815c.001-28.901-21.091-52.966-48.721-57.717zm-55.568-129.768v24.185c0 1.063-.924 1.962-2.017 1.962h-70.937c-1.06 0-1.989-.917-1.989-1.962v-24.185zm-62.954 46.147h50.937v36.579h-50.937zm-34.433 56.578h119.83c7.237 0 13.125 5.865 13.125 13.073v13.102h-146.079v-13.102c0-7.208 5.888-13.073 13.124-13.073zm-23.124 46.175h166.079c19.163 0 35.109 13.946 38.179 32.185h-242.437c3.07-18.239 19.016-32.185 38.179-32.185zm-38.721 251.639v-199.454h243.522v199.453h-243.522z" fill="#ffadad" data-original="#000000" style="" class=""/><path d="m244.31 302.451h-28.892v-28.805c0-5.523-4.478-10-10-10h-55.341c-5.522 0-10 4.477-10 10v28.805h-28.921c-5.522 0-10 4.477-10 10v55.218c0 5.523 4.478 10 10 10h28.921v28.805c0 5.523 4.478 10 10 10h55.341c5.522 0 10-4.477 10-10v-28.805h28.892c5.522 0 10-4.477 10-10v-55.218c0-5.523-4.478-10-10-10zm-10 55.218h-28.892c-5.522 0-10 4.477-10 10v28.805h-35.341v-28.805c0-5.523-4.478-10-10-10h-28.921v-35.218h28.921c5.522 0 10-4.477 10-10v-28.805h35.341v28.805c0 5.523 4.478 10 10 10h28.892z" fill="#ffadad" data-original="#000000" style="" class=""/><path d="m469.357 186.623c-7.24-14.448-21.571-34.629-34.216-52.434-5.334-7.51-10.371-14.604-14.318-20.486-1.856-2.766-4.968-4.426-8.299-4.428-.002 0-.003 0-.005 0-3.329 0-6.44 1.657-8.299 4.42-3.91 5.815-8.886 12.817-14.152 20.23-12.719 17.899-27.135 38.185-34.394 52.713-4.412 8.84-6.649 18.353-6.649 28.276 0 34.945 28.483 63.375 63.494 63.375s63.494-28.43 63.494-63.375c0-9.926-2.237-19.439-6.656-28.291zm-56.838 71.665c-23.982 0-43.494-19.458-43.494-43.375 0-6.794 1.529-13.303 4.542-19.34 6.566-13.14 20.505-32.756 32.804-50.064 2.107-2.966 4.17-5.868 6.143-8.664 2.027 2.877 4.15 5.867 6.321 8.923 12.228 17.22 26.089 36.737 32.635 49.801 3.016 6.04 4.544 12.548 4.544 19.344-.001 23.917-19.512 43.375-43.495 43.375z" fill="#ffadad" data-original="#000000" style="" class=""/><path d="m177.747 492c-5.522 0-10 4.477-10 10s4.478 10 10 10h.028c5.522 0 9.985-4.477 9.985-10 .001-5.523-4.49-10-10.013-10z" fill="#ffadad" data-original="#000000" style="" class=""/></g></g></g></svg>
