<svg width="492" height="490" viewBox="0 0 492 490" fill="none" xmlns="http://www.w3.org/2000/svg">
<path d="M491.002 258.243C491.002 386.239 381.535 490 246.501 490C111.467 490 2 386.239 2 258.243C2 130.248 111.467 26.4865 246.501 26.4865C381.535 26.4865 491.002 130.248 491.002 258.243Z" fill="#816AE2"/>
<path d="M427.636 102.162C410.638 114.082 395.871 133.555 407.108 163.215C428.96 220.892 376.362 264.639 432.459 302.389C454.646 317.32 468.591 330.3 477.35 340.541C486.827 315.571 492 288.615 492 260.496C492 199.407 467.588 143.802 427.636 102.162Z" fill="#C5B9F7"/>
<g clip-path="url(#clip0)">
<path d="M152.541 396.403C152.541 400.031 149.925 402.973 146.699 402.973H99.9683C96.7425 402.973 94.1268 400.031 94.1268 396.403C94.1268 392.774 96.7425 389.832 99.9683 389.832H146.699C149.925 389.832 152.541 392.774 152.541 396.403ZM80.4972 389.832H72.7091C69.4833 389.832 66.8676 392.774 66.8676 396.403C66.8676 400.031 69.4833 402.973 72.7091 402.973H80.4972C83.723 402.973 86.3387 400.031 86.3387 396.403C86.3387 392.774 83.723 389.832 80.4972 389.832Z" fill="#C1C1C1"/>
<path d="M306.363 17.5207C306.363 7.84381 313.336 0 321.94 0H349.2C357.803 0 364.777 7.84381 364.777 17.5207V87.6025H306.363V17.5207H306.363Z" fill="#769CA5"/>
<path d="M321.94 0H337.517C328.913 0 321.94 7.84381 321.94 17.5207V87.6025H306.363V17.5207C306.363 7.84381 313.336 0 321.94 0Z" fill="#5B7A7F"/>
<path d="M246.002 385.452V131.405C246.002 102.376 266.924 78.8426 292.733 78.8426H378.406C404.215 78.8426 425.137 102.376 425.137 131.405V385.453C425.137 395.13 418.163 402.974 409.56 402.974H261.579C252.976 402.973 246.002 395.129 246.002 385.452Z" fill="#C5EAFF"/>
<path d="M246.002 385.452V131.405C246.002 102.376 266.924 78.8426 292.733 78.8426H313.177C338.986 78.8426 359.908 102.376 359.908 131.405V385.453C359.908 395.13 352.935 402.974 344.331 402.974H261.579C252.976 402.973 246.002 395.129 246.002 385.452Z" fill="#B5E1F4"/>
<path d="M228.478 148.924H244.055C252.659 148.924 259.632 156.768 259.632 166.445V271.568H212.901V166.445C212.901 156.769 219.875 148.924 228.478 148.924Z" fill="#B28D5B"/>
<path d="M228.478 148.924H244.055C235.452 148.924 228.478 156.768 228.478 166.445V271.568H212.901V166.445C212.901 156.769 219.875 148.924 228.478 148.924Z" fill="#99774F"/>
<path d="M298.574 289.089V385.452C298.574 395.129 291.6 402.973 282.997 402.973H189.535C180.932 402.973 173.958 395.129 173.958 385.452V289.089C173.958 269.737 187.906 254.048 205.112 254.048H267.42C284.626 254.048 298.574 269.737 298.574 289.089Z" fill="#FFA233"/>
<path d="M236.266 385.452V289.089C236.266 269.737 222.318 254.048 205.112 254.048H267.42C284.625 254.048 298.574 269.737 298.574 289.089V385.452C298.574 395.129 291.6 402.973 282.997 402.973H220.689C229.293 402.973 236.266 395.129 236.266 385.452Z" fill="#FFC248"/>
<path d="M212.901 332.891V385.453C212.901 395.13 205.928 402.974 197.324 402.974H142.805C134.202 402.974 127.228 395.13 127.228 385.453V332.891C127.228 323.214 134.202 315.37 142.805 315.37H197.324C205.927 315.37 212.901 323.214 212.901 332.891Z" fill="#FF9CAB"/>
<path d="M142.805 315.37H166.17C157.567 315.37 150.593 323.214 150.593 332.891V385.453C150.593 395.13 157.567 402.974 166.17 402.974H142.805C134.202 402.974 127.228 395.13 127.228 385.453V332.891C127.228 323.214 134.202 315.37 142.805 315.37Z" fill="#FC758E"/>
<path d="M142.805 315.37H197.324C205.928 315.37 212.901 323.214 212.901 332.891V350.412H127.228V332.891C127.228 323.214 134.202 315.37 142.805 315.37Z" fill="#FFC0CF"/>
<path d="M142.805 315.37H166.17C157.567 315.37 150.593 323.214 150.593 332.891V350.412H127.228V332.891C127.228 323.214 134.202 315.37 142.805 315.37Z" fill="#FF9CAB"/>
<path d="M399.824 140.165V350.411C399.824 354.039 397.208 356.981 393.982 356.981C390.757 356.981 388.141 354.039 388.141 350.411V140.165C388.141 136.536 390.757 133.594 393.982 133.594C397.208 133.594 399.824 136.536 399.824 140.165ZM269.367 282.519C266.141 282.519 263.526 285.461 263.526 289.09V367.932C263.526 371.561 266.141 374.503 269.367 374.503C272.593 374.503 275.209 371.561 275.209 367.932V289.089C275.209 285.461 272.594 282.519 269.367 282.519Z" fill="white"/>
</g>
<path d="M1.39608 257.077C1.25257 272.605 2.70995 287.79 5.59111 302.502C21.1694 269.029 57.1198 256.974 86.5271 252.926C107.769 250.003 121.8 230.313 116.708 210.396C109.498 182.197 106.196 151.185 110.454 123.661C113.248 105.613 101.467 91.4912 87.1181 81.2458C35.1928 123.731 2.04725 186.619 1.39608 257.077Z" fill="#C5B9F6"/>
<defs>
<clipPath id="clip0">
<rect width="358.269" height="402.973" fill="white" transform="translate(66.8676)"/>
</clipPath>
</defs>
</svg>
